# xmcd CD database file
#
# Track frame offsets:
#	150
#	19385
#	36820
#	57183
#	72923
#	92913
#	126028
#	142288
#	160210
#	177150
#
# Disc length: 2991 seconds
#
# Revision: 0
# Processed by: cddbd v1.5.1PL2 Copyright (c) Steve Scherf et al.
# Submitted via: CDex 1.51
#
DISCID=8e0bad0a
DTITLE=The PaulinBrothersJazzBand - The Tradition Continues...
DYEAR=1996
DGENRE=Jazz
TTITLE0=Call Me Shine
TTITLE1=Marie
TTITLE2=Save Your Sorrows
TTITLE3=I Found A New Baby
TTITLE4=When You're Smiling
TTITLE5=See See Rider
TTITLE6=Save Your Sorrows - Instrumental
TTITLE7=Bye Bye Blackbird
TTITLE8=Cheeri-Beerie Be
TTITLE9=China Town My China Town - What You Say
EXTD=YEAR: 1996
EXTT0=
EXTT1=
EXTT2=
EXTT3=
EXTT4=
EXTT5=
EXTT6=
EXTT7=
EXTT8=
EXTT9=
PLAYORDER=
